<svg width="103" height="101" viewBox="0 0 103 101" fill="none" xmlns="http://www.w3.org/2000/svg">
<path d="M66.449 52.4471C66.8019 52.7414 67.2472 52.9011 67.706 52.9011H83.9455C87.1836 52.9011 89.8187 50.2659 89.8187 47.0278C89.8187 43.8888 87.3625 41.3114 84.2273 41.1604L73.7503 40.6584L63.8792 29.8065C63.3331 27.3409 61.887 25.1633 59.7487 23.7822C59.6862 23.7418 59.6208 23.7043 59.5544 23.6716L44.9642 16.4481C40.8654 14.4199 35.6577 14.9748 32.0811 17.8176L16.708 30.0343C15.3741 31.0951 14.5413 32.6127 14.3615 34.3072C14.1826 36.0027 14.6807 37.6607 15.7636 38.9764C17.8275 41.4864 21.7609 41.9779 24.3787 40.0429L37.7389 30.1776L41.4059 31.6769L28.4852 47.2306L1.5812 78.5327C0.422336 79.8811 -0.130651 81.5987 0.0261089 83.3702C0.181907 85.1397 1.02533 86.7342 2.40059 87.8575C3.60081 88.8404 5.07031 89.329 6.53886 89.329C8.14108 89.329 9.74041 88.7481 10.9839 87.5979L35.3914 65.0154L38.6044 66.7921L25.2289 85.1128C23.2006 87.8922 23.6257 91.6929 26.2175 93.9567C27.4168 95.0031 28.9536 95.5782 30.5443 95.5782C32.4802 95.5782 34.3103 94.7338 35.5635 93.2585L53.9313 71.6353C55.6845 69.5714 56.4895 66.9517 56.1971 64.2589C55.9047 61.568 54.5574 59.1811 52.4031 57.5423L47.9417 54.1474L56.5457 44.2385L66.449 52.4471ZM61.7972 38.1906C62.5536 37.3191 63.1271 36.3267 63.5251 35.2715L71.3845 43.9119C71.7355 44.2985 72.226 44.5293 72.7473 44.5543L84.0388 45.0958C85.0707 45.1448 85.8795 45.994 85.8795 47.0278C85.8795 48.0944 85.012 48.9619 83.9455 48.9619H68.4157L59.1292 41.2632L61.7972 38.1906ZM8.30841 84.705C7.36208 85.5821 5.89547 85.6264 4.89432 84.8089C4.3471 84.3626 4.01146 83.7279 3.94991 83.0239C3.8874 82.32 4.10764 81.6352 4.5683 81.0986L26.306 55.8088C26.8955 58.7912 28.7501 61.3426 31.4146 62.8163L31.7599 63.0073L8.30841 84.705ZM54.8036 40.2362L43.5909 53.1511C43.2332 53.5608 43.0629 54.1013 43.1187 54.6437C43.1745 55.1842 43.4515 55.6785 43.8842 56.0093L50.0171 60.6775C51.3029 61.6546 52.1069 63.0779 52.281 64.684C52.4551 66.2901 51.9752 67.8538 50.9288 69.0848L32.561 90.7081C31.6454 91.7871 29.8778 91.9198 28.8074 90.9889C27.7659 90.0791 27.5956 88.5519 28.4102 87.4363L43.1033 67.3114C43.437 66.8536 43.5582 66.2766 43.4361 65.7246C43.3139 65.1726 42.96 64.6994 42.4657 64.4263L33.3207 59.3696C31.6599 58.4502 30.5058 56.8537 30.1548 54.9899C29.8028 53.1222 30.2971 51.2152 31.5098 49.7543L46.151 32.1299C46.552 31.6471 46.6992 31.0028 46.5472 30.394C46.3953 29.7852 45.9625 29.2851 45.3826 29.0486L38.2063 26.1124C37.9649 26.0134 37.7119 25.9653 37.46 25.9653C37.0455 25.9653 36.6339 26.0961 36.2896 26.3509L22.0388 36.874C21.054 37.6021 19.5797 37.4145 18.8056 36.474C18.3987 35.9796 18.2122 35.3574 18.2795 34.7217C18.3468 34.0851 18.6594 33.5157 19.1595 33.1176L34.5325 20.9009C36.9426 18.9842 40.4538 18.6101 43.2158 19.9776L57.6983 27.1482C59.037 28.0474 59.9324 29.4727 60.1594 31.073C60.3921 32.7079 59.9045 34.3611 58.8226 35.6075L54.8036 40.2362Z" fill="white" fill-opacity="0.66"/>
<path d="M68.885 24.1602C75.5458 24.1602 80.9651 18.741 80.9651 12.0801C80.9651 5.41927 75.5458 0 68.885 0C62.2241 0 56.8049 5.41927 56.8049 12.0801C56.8049 18.741 62.2241 24.1602 68.885 24.1602ZM68.885 3.93919C73.3743 3.93919 77.0259 7.59083 77.0259 12.0801C77.0259 16.5694 73.3743 20.2211 68.885 20.2211C64.3957 20.2211 60.7441 16.5694 60.7441 12.0801C60.7441 7.59083 64.3957 3.93919 68.885 3.93919Z" fill="white" fill-opacity="0.66"/>
<path d="M101.031 76.8513H96.3077C96.3237 76.5928 96.3456 76.3355 96.3456 76.0742C96.3456 72.764 95.0559 69.65 92.7141 67.3091C90.3733 64.9664 87.2593 63.6758 83.9481 63.6758C81.2572 63.6758 78.6971 64.5279 76.5755 66.1032C74.454 64.5279 71.8939 63.6758 69.203 63.6758C65.8909 63.6758 62.7778 64.9664 60.437 67.3072C55.6043 72.1427 55.6043 80.0077 60.437 84.8393L75.183 99.5863C75.5523 99.9556 76.0533 100.163 76.5755 100.163C77.0978 100.163 77.5988 99.9556 77.9681 99.5863L92.7141 84.8393C93.8927 83.6612 94.8034 82.2867 95.4187 80.7905H101.031C102.119 80.7905 103.001 79.9096 103.001 78.8209C103.001 77.7322 102.119 76.8513 101.031 76.8513ZM92.3304 76.8513H83.9461C83.4807 76.8513 83.0296 77.0167 82.6738 77.3168L77.845 81.4041L75.4619 77.7457C74.9118 76.9032 73.8173 76.6109 72.921 77.0648L66.8074 80.1635C65.837 80.6539 65.4494 81.8388 65.9409 82.8101C66.4323 83.7795 67.6152 84.1738 68.5885 83.6756L73.1259 81.3771L75.7629 85.424C76.0716 85.8972 76.5688 86.2165 77.1276 86.2973C77.2228 86.3107 77.318 86.3184 77.4132 86.3184C77.8758 86.3184 78.3278 86.1549 78.6855 85.853L84.6674 80.7905H90.9675C90.6649 81.2388 90.3198 81.6631 89.929 82.0542L76.5755 95.4086L63.2221 82.0542C59.9253 78.7574 59.9253 73.391 63.2221 70.0924C64.8195 68.4959 66.943 67.615 69.203 67.615C71.4621 67.615 73.5856 68.4959 75.183 70.0924C75.9216 70.831 77.2295 70.831 77.9681 70.0924C79.5655 68.4959 81.689 67.615 83.9481 67.615C86.2071 67.615 88.3306 68.4959 89.929 70.0943C91.5264 71.6927 92.4064 73.8161 92.4064 76.0742C92.4064 76.3381 92.3542 76.5916 92.3304 76.8513Z" fill="white" fill-opacity="0.66"/>
</svg>
