<svg width="112" height="112" viewBox="0 0 112 112" fill="none" xmlns="http://www.w3.org/2000/svg">
<g clip-path="url(#clip0_95_2176)">
<path d="M55.4392 10.0876C55.0824 9.74176 54.592 9.55695 54.0998 9.5789C50.8885 9.70516 47.6863 10.1553 44.5848 10.9201L45.4613 14.4736C47.7101 13.9192 50.0157 13.5441 52.3413 13.3519V47.9571H13.0483C13.5295 45.6881 14.1919 43.4558 15.0245 41.2948L11.6119 39.9773C10.428 43.044 9.56252 46.2462 9.0392 49.4941C8.9532 50.0247 9.10507 50.5627 9.45273 50.9726C9.80039 51.3824 10.3091 51.6166 10.8452 51.6166H54.1711C55.183 51.6166 56.0009 50.7969 56.0009 49.7868V11.4069C56.0009 10.9092 55.7996 10.4334 55.4392 10.0876Z" fill="white" fill-opacity="0.81"/>
<path d="M94.0585 28.5599L91.1308 30.7575C96.8782 38.4042 99.9157 47.5147 99.9157 57.1065C99.9157 57.6902 99.901 58.2959 99.8718 58.9363H63.3197V13.8117C66.2273 14.3003 69.0781 15.0798 71.821 16.1392L73.1403 12.7267C69.4752 11.3104 65.6289 10.3534 61.7095 9.88498C61.1807 9.82277 60.6684 9.98745 60.2768 10.3333C59.8834 10.6791 59.6602 11.1768 59.6602 11.702V60.7661C59.6602 61.7762 60.4781 62.5959 61.49 62.5959H101.586C102.54 62.5959 103.334 61.8622 103.411 60.9125C103.522 59.5219 103.575 58.2776 103.575 57.1065C103.575 46.7151 100.283 36.8452 94.0585 28.5599Z" fill="white" fill-opacity="0.81"/>
<path d="M54.1707 55.2764H10.2556C9.2437 55.2764 8.42578 56.0961 8.42578 57.1062C8.42578 59.6624 8.62889 62.2223 9.03144 64.7181L12.6453 64.1362C12.369 62.4272 12.1952 60.6852 12.1238 58.936H52.3409V100.86C48.7966 100.567 45.3145 99.8502 41.9605 98.7194L40.7912 102.189C45.0748 103.632 49.5505 104.456 54.0975 104.633C54.1213 104.633 54.1451 104.635 54.1689 104.635C54.6409 104.635 55.0966 104.452 55.4369 104.125C55.7992 103.779 56.0005 103.303 56.0005 102.805V57.1062C56.0005 56.0961 55.1826 55.2764 54.1707 55.2764Z" fill="white" fill-opacity="0.81"/>
<path d="M101.848 66.9575C101.504 66.5129 100.973 66.2549 100.412 66.2549H61.49C60.4781 66.2549 59.6602 67.0746 59.6602 68.0847V102.51C59.6602 103.034 59.8834 103.531 60.275 103.879C60.6135 104.179 61.0453 104.34 61.49 104.34C61.5613 104.34 61.6345 104.337 61.7077 104.327C63.6217 104.099 65.5429 103.749 67.4167 103.288L66.5402 99.7347C65.4789 99.9963 64.4012 100.22 63.3179 100.401V69.9145H98.0072C97.8809 70.3317 97.7474 70.747 97.6083 71.1606L101.076 72.3298C101.5 71.0709 101.875 69.7901 102.185 68.5238C102.32 67.9786 102.196 67.4003 101.848 66.9575Z" fill="white" fill-opacity="0.81"/>
<path d="M42.8175 17.9594C42.8157 17.9576 42.8138 17.9576 42.812 17.9576C40.2521 16.0363 37.2202 15.0208 34.0418 15.0208C33.491 15.0208 32.9311 15.0629 32.3584 15.1342C30.5743 11.4893 27.493 8.59638 23.7089 7.0685C25.2167 5.46926 27.1105 4.20853 29.1947 3.42538L27.9083 0C25.2789 0.98626 22.8892 2.58184 20.9935 4.61109C20.5544 5.08134 20.1646 5.55892 19.8023 6.04016C19.0704 5.94135 18.3312 5.87182 17.5736 5.87182C8.49236 5.87182 1.10547 13.2605 1.10547 22.34C1.10547 31.4194 8.49236 38.8082 17.5736 38.8082C19.1528 38.8082 20.677 38.5721 22.1243 38.1549C24.2158 41.0826 27.3301 43.1594 30.8653 43.9426C30.8671 43.9426 30.8671 43.9444 30.8689 43.9444C31.9302 44.1786 32.9988 44.2975 34.0418 44.2975C37.5257 44.2975 40.909 43.0423 43.5641 40.766C43.5659 40.7642 43.5659 40.7642 43.5677 40.7624C46.8156 37.9738 48.6802 33.9263 48.6802 29.6592C48.6802 25.0225 46.543 20.759 42.8175 17.9594ZM17.5736 35.1486C10.5125 35.1486 4.76506 29.403 4.76506 22.34C4.76506 15.277 10.5125 9.53141 17.5736 9.53141C17.623 9.53141 17.6688 9.53873 17.7182 9.53873C17.0027 11.1288 16.6038 12.6201 16.3843 13.8278L19.9835 14.4847C20.2012 13.2916 20.6385 11.7546 21.4967 10.1517C25.2167 11.3521 28.1865 14.2102 29.5551 17.8515C29.6851 18.1992 29.8003 18.5486 29.8991 18.9C29.912 18.9457 29.9229 18.9915 29.9339 19.0372C30.0199 19.3556 30.0949 19.674 30.1571 19.996C30.1828 20.1369 30.2011 20.2796 30.223 20.4205C30.2596 20.6584 30.298 20.8963 30.3218 21.136C30.3584 21.5312 30.3822 21.9338 30.3822 22.34C30.3822 23.2823 30.2669 24.2594 30.0382 25.2439C28.7153 30.9107 23.6357 35.1486 17.5736 35.1486ZM29.9083 39.8255C28.2468 39.1485 26.7812 38.0653 25.6266 36.6892C28.3292 35.1669 30.5652 32.9125 32.0492 30.1861L29.9083 39.8255ZM44.8687 27.8294H37.7014L41.9959 22.1058C43.5147 23.6922 44.5101 25.672 44.8687 27.8294ZM39.0683 19.9064L37.469 22.0381L34.2705 26.3015L33.7509 25.3646V25.3628C33.8424 24.8724 33.9174 24.3765 33.9631 23.8715C34.0144 23.3592 34.0418 22.8468 34.0418 22.34C34.0418 21.7343 34.0034 21.1378 33.9393 20.5486C33.9302 20.4626 33.9119 20.3784 33.9009 20.2924C33.835 19.7636 33.7454 19.2421 33.6301 18.7298C33.6283 18.717 33.6264 18.7042 33.6228 18.6895C35.5843 18.6035 37.3976 19.039 39.0683 19.9064ZM33.4801 40.6233L35.0336 33.6298L39.6922 39.0643C37.8331 40.1823 35.6831 40.7368 33.4801 40.6233ZM42.4698 36.6801L38.0216 31.489H44.8669C44.543 33.3974 43.7159 35.1888 42.4698 36.6801Z" fill="white" fill-opacity="0.81"/>
<path d="M72.4682 35.1486H68.8086V38.8082H72.4682V35.1486Z" fill="white" fill-opacity="0.81"/>
<path d="M79.7865 38.8086H76.127V42.4682H79.7865V38.8086Z" fill="white" fill-opacity="0.81"/>
<path d="M87.1069 51.6172H83.4473V55.2768H87.1069V51.6172Z" fill="white" fill-opacity="0.81"/>
<path d="M72.4682 49.7869H68.8086V53.4465H72.4682V49.7869Z" fill="white" fill-opacity="0.81"/>
<path d="M70.6381 42.4678H66.9785V46.1274H70.6381V42.4678Z" fill="white" fill-opacity="0.81"/>
<path d="M96.2553 44.2979H92.5957V47.9574H96.2553V44.2979Z" fill="white" fill-opacity="0.81"/>
<path d="M87.1069 36.9785H83.4473V40.6381H87.1069V36.9785Z" fill="white" fill-opacity="0.81"/>
<path d="M79.7865 46.127H76.127V49.7865H79.7865V46.127Z" fill="white" fill-opacity="0.81"/>
<path d="M87.1069 44.2979H83.4473V47.9574H87.1069V44.2979Z" fill="white" fill-opacity="0.81"/>
<path d="M110.894 2.21254C106.126 2.21254 101.584 3.45314 97.4966 5.58668C97.1398 4.77425 96.6549 3.99659 95.9944 3.33603C93.5077 0.851167 88.924 2.13568 88.408 2.28939C87.8207 2.46688 87.3596 2.92616 87.1821 3.51352C87.0284 4.02769 85.742 8.61133 88.2305 11.0999C88.5178 11.3853 88.8289 11.6305 89.1454 11.8592C87.9469 13.1181 86.86 14.4923 85.8573 15.936C85.6048 15.57 85.3376 15.2114 85.0156 14.8894C82.6039 12.4795 78.1008 13.3048 77.5939 13.4091C76.9169 13.5463 76.3753 14.0531 76.1905 14.7192C75.9435 15.6213 74.8364 20.2379 77.2518 22.6532C78.4649 23.8627 79.9891 24.5415 81.4987 24.6751C80.4082 27.9852 79.7879 31.5039 79.7879 35.1489H83.4474C83.4474 32.5195 83.839 29.9541 84.516 27.4893C85.5261 28.0602 86.7246 28.4024 88.0219 28.4024C91.5205 28.4024 93.9303 24.278 94.1938 23.806C94.5031 23.2515 94.5031 22.5745 94.1938 22.0183C93.9633 21.6065 92.0932 18.4044 89.29 17.6048C90.4135 16.0623 91.6687 14.635 93.0411 13.3414C93.9743 15.3907 96.2871 16.8509 99.0007 16.8509C102.499 16.8509 104.909 12.7265 105.173 12.2545C105.482 11.7 105.482 11.023 105.173 10.4667C105.015 10.185 104.077 8.60035 102.607 7.3689C105.248 6.41009 108.034 5.87213 110.894 5.87213V2.21254ZM83.4438 19.9488C83.2974 20.236 83.1748 20.5361 83.0357 20.8289C82.9314 20.8563 82.8253 20.8801 82.7265 20.9259C82.0348 21.2388 80.8235 21.0466 79.8409 20.064C79.3487 19.5718 79.3194 18.1281 79.4933 16.8601C80.6186 16.8088 81.8958 16.9442 82.4282 17.4767C83.1181 18.1665 83.506 19.0778 83.4401 19.8554C83.4383 19.8865 83.4456 19.9176 83.4438 19.9488ZM90.4043 22.913C89.6925 23.8444 88.7264 24.7428 88.0219 24.7428C87.0814 24.7428 86.2214 24.3878 85.7219 23.9048C86.1006 22.9954 86.5252 22.1097 86.9863 21.2442C87.3156 21.1454 87.6615 21.0832 88.0219 21.0832C88.7282 21.0832 89.6925 21.9817 90.4043 22.913ZM91.967 9.26274C91.5772 9.10172 91.1838 8.87848 90.8197 8.51252C90.3256 8.01848 90.2964 6.71566 90.4702 5.57753C91.5443 5.41834 92.8892 5.40553 93.407 5.92336C93.8645 6.38081 94.1719 6.93524 94.3201 7.48418C93.5095 8.03861 92.7263 8.63329 91.967 9.26274ZM99.0007 13.1913C97.5387 13.1913 96.256 12.3368 96.2524 11.4658C96.2579 11.4329 96.2816 11.2828 96.2853 11.2499C96.3073 11.0669 96.2944 10.8858 96.2615 10.7083C96.6604 10.4283 97.0666 10.1612 97.4765 9.90134C97.9413 9.67627 98.4536 9.53172 99.0007 9.53172C99.707 9.53172 100.671 10.4302 101.383 11.3615C100.671 12.2929 99.7052 13.1913 99.0007 13.1913Z" fill="white" fill-opacity="0.81"/>
<path d="M42.8029 74.0743C43.059 73.3296 43.1908 72.5446 43.1908 71.745C43.1908 67.7084 39.9081 64.4258 35.8716 64.4258C33.6411 64.4258 31.5643 65.4633 30.1992 67.1485C28.6659 66.3123 26.8324 66.0451 25.1142 66.4367C23.4967 65.1321 21.5059 64.4258 19.4034 64.4258C14.3587 64.4258 10.2544 68.53 10.2544 73.5748C6.21792 73.5748 2.93527 76.8574 2.93527 80.8939C2.93527 82.1327 3.24267 83.3203 3.82089 84.3761C2.1393 85.7411 1.10547 87.8142 1.10547 90.0429C1.10547 94.0795 4.38812 97.3621 8.42465 97.3621C11.0705 97.3621 13.3962 95.9495 14.6807 93.8379L17.6432 99.7628L19.429 110.471C19.5754 111.353 20.3385 112 21.2332 112H35.8716C36.8835 112 37.7014 111.181 37.7014 110.171V99.3438L39.5056 88.5151C39.522 88.4144 39.5312 88.3138 39.5312 88.2131C44.5759 88.2131 48.6802 84.9305 48.6802 80.8939C48.6802 77.7906 46.2557 75.1264 42.8029 74.0743ZM39.5312 84.5535C39.0994 84.5535 38.6492 84.5005 38.0728 84.3815C37.5349 84.2699 36.9731 84.4072 36.5468 84.7548C36.1204 85.1025 35.8716 85.6221 35.8716 86.1729V88.0631L34.0674 98.8918C34.051 98.9906 34.0418 99.0913 34.0418 99.1919V108.341H22.7831L21.2094 98.89C21.1783 98.7107 21.1234 98.5368 21.0411 98.3722L15.5517 87.3934C15.2406 86.7749 14.6075 86.3833 13.914 86.3833H13.5481C12.9497 86.3833 12.388 86.6761 12.0477 87.1665C11.7036 87.6587 11.625 88.2863 11.8317 88.8462C12.0037 89.3147 12.0842 89.6953 12.0842 90.0429C12.0842 92.0612 10.4429 93.7025 8.42465 93.7025C6.40639 93.7025 4.76506 92.0612 4.76506 90.0429C4.76506 88.5279 5.72936 87.1537 7.16575 86.6249C7.76227 86.4035 8.20142 85.8911 8.32767 85.2653C8.4521 84.6414 8.2435 83.9973 7.77691 83.5654C7.01388 82.8591 6.59486 81.9095 6.59486 80.8939C6.59486 78.8757 8.23619 77.2344 10.2544 77.2344C10.6204 77.2344 11.0065 77.3112 11.4639 77.4759C12.0239 77.6772 12.646 77.593 13.1364 77.2508C13.6249 76.9086 13.914 76.3506 13.914 75.7541V73.5748C13.914 70.5483 16.3769 68.0854 19.4034 68.0854C20.8947 68.0854 22.2945 68.6819 23.3412 69.7651C23.859 70.3031 24.6549 70.4714 25.3466 70.1878C26.7684 69.6059 28.3639 69.9847 29.396 71.0972C29.8296 71.5638 30.4755 71.7724 31.0977 71.6462C31.7216 71.5217 32.2358 71.0808 32.4554 70.4842C32.9842 69.0497 34.3565 68.0854 35.8716 68.0854C37.8899 68.0854 39.5312 69.7267 39.5312 71.745C39.5312 72.6434 39.1872 73.5144 38.5614 74.1987C38.0802 74.7257 37.9502 75.4814 38.2229 76.1383C38.4974 76.7952 39.1286 77.2344 39.8404 77.2618C42.6949 77.3734 45.0206 79.0038 45.0206 80.8939C45.0206 82.8774 42.5064 84.5535 39.5312 84.5535Z" fill="white" fill-opacity="0.81"/>
<path d="M98.5449 73.5742H96.6273C90.2559 73.5742 84.9733 78.3555 84.3384 84.6957L83.5479 92.6059L79.8425 94.8291L79.2515 94.2381C78.9094 93.8941 78.4446 93.702 77.9579 93.702H77.043C73.5115 93.702 70.6387 96.5748 70.6387 100.106C70.6387 103.347 73.0577 106.033 76.1848 106.454C76.6056 109.581 79.2918 112 82.5323 112C86.0639 112 88.9366 109.127 88.9366 105.596V104.681C88.9366 104.196 88.7445 103.729 88.4005 103.387L87.8095 102.796L90.0272 99.0999L99.6629 98.2234C106.065 97.6415 110.894 92.3534 110.894 85.9253C110.894 79.1148 105.355 73.5742 98.5449 73.5742ZM84.2121 104.373L85.277 105.438V105.596C85.277 107.109 84.0456 108.34 82.5323 108.34C81.0191 108.34 79.7877 107.109 79.7877 105.596V104.681C79.7877 103.671 78.9697 102.851 77.9579 102.851H77.043C75.5297 102.851 74.2983 101.62 74.2983 100.106C74.2983 98.593 75.5297 97.3616 77.043 97.3616H77.2003L78.2653 98.4265C78.8581 99.0212 79.7785 99.1328 80.5013 98.701L84.9934 96.0057L85.8132 96.8254L86.6329 97.6452L83.9376 102.137C83.5058 102.858 83.6192 103.779 84.2121 104.373ZM99.3317 94.5785L89.6246 95.4604L87.1837 93.0195L87.9815 85.058C88.428 80.597 92.1443 77.2338 96.6273 77.2338H98.5449C103.335 77.2338 107.235 81.1331 107.235 85.9253C107.235 90.4486 103.838 94.1686 99.3317 94.5785Z" fill="white" fill-opacity="0.81"/>
<path d="M22.2705 17.0076C20.9768 18.5575 18.8469 19.1046 17.0922 18.3361C15.6082 17.6847 14.6 16.1549 14.5231 14.4404L10.8672 14.6033C11.0044 17.6993 12.8708 20.4788 15.621 21.6864C16.6219 22.1256 17.685 22.336 18.7445 22.336C21.1122 22.336 23.4672 21.282 25.0792 19.3534L22.2705 17.0076Z" fill="white" fill-opacity="0.81"/>
<path d="M93.3383 82.1086C91.503 83.4626 90.8059 85.6218 90.7656 87.1936L94.4252 87.2887C94.4289 87.1387 94.4911 85.8066 95.5121 85.0546C96.4508 84.3629 97.8122 84.3885 98.9064 85.1095L100.923 82.0555C98.5532 80.4892 95.503 80.5112 93.3383 82.1086Z" fill="white" fill-opacity="0.81"/>
<path d="M25.9602 84.4195C23.7736 82.2604 20.5367 80.8935 17.5743 80.8935V84.5531C20.7691 84.5531 24.8935 87.2155 24.8935 90.0425V97.3617H28.5531V90.0425C28.5531 87.8413 29.0874 82.7233 34.0424 82.7233V79.0637C30.2054 79.0637 27.3911 81.0436 25.9602 84.4195Z" fill="white" fill-opacity="0.81"/>
</g>
<defs>
<clipPath id="clip0_95_2176">
<rect width="112" height="112" fill="white"/>
</clipPath>
</defs>
</svg>