<svg width="128" height="128" viewBox="0 0 128 128" fill="none" xmlns="http://www.w3.org/2000/svg">
<mask id="mask0_95_2257" style="mask-type:luminance" maskUnits="userSpaceOnUse" x="0" y="0" width="128" height="128">
<path d="M0 0H128V128H0V0Z" fill="white"/>
<path d="M126.5 126.5V1.5H1.5V126.5H126.5Z" stroke="white" stroke-width="3"/>
</mask>
<g mask="url(#mask0_95_2257)">
<path d="M45.4545 67.7646H40.3445C36.8857 67.7646 33.758 69.1823 31.5107 71.4681C29.313 73.7036 27.9572 76.7696 27.9572 80.1521V89.7313" stroke="white" stroke-opacity="0.61" stroke-width="3" stroke-miterlimit="10" stroke-linecap="round" stroke-linejoin="round"/>
<path d="M100.044 90.3213V80.1523C100.044 76.7698 98.6884 73.704 96.4906 71.4685C94.2434 69.1825 91.1156 67.7648 87.6569 67.7648H82.5469" stroke="white" stroke-opacity="0.61" stroke-width="3" stroke-miterlimit="10" stroke-linecap="round" stroke-linejoin="round"/>
<path d="M83.7369 26.493C84.2494 28.194 84.5469 29.9848 84.5984 31.832C84.6504 33.691 83.3326 35.3075 81.4999 35.6208L78.8734 36.0695C69.4584 37.6788 59.9706 33.643 54.5999 25.7443C52.5489 31.3793 49.6481 35.1613 46.7526 37.7223C45.5904 38.7505 43.7499 37.984 43.6359 36.436L43.4694 34.1738C43.0114 27.9543 45.2389 22.2235 49.1656 18.1235C51.1031 16.101 54.5189 17.4763 54.5189 20.277C54.5189 15.9453 57.8114 12.2983 62.1264 11.9163C62.6586 11.8695 63.1974 11.842 63.7421 11.8355C69.9761 11.759 75.5454 14.4395 79.3589 18.702" stroke="white" stroke-opacity="0.61" stroke-width="3" stroke-miterlimit="10" stroke-linecap="round" stroke-linejoin="round"/>
<path d="M82.3389 35.3743L81.3304 49.0676C80.6619 58.1443 69.4719 64.4346 64.0014 64.4346C58.5309 64.4346 47.3409 58.1443 46.6724 49.0676L45.8691 38.1608" stroke="white" stroke-opacity="0.61" stroke-width="3" stroke-miterlimit="10" stroke-linecap="round" stroke-linejoin="round"/>
<path d="M96.5437 98.7621C91.8762 103.43 84.3087 103.43 79.6412 98.7621C74.9737 94.0946 74.9737 86.5271 79.6412 81.8596C84.3087 77.1921 91.8762 77.1921 96.5437 81.8596C101.211 86.5271 101.211 94.0946 96.5437 98.7621Z" stroke="white" stroke-opacity="0.61" stroke-width="3" stroke-miterlimit="10" stroke-linecap="round" stroke-linejoin="round"/>
<path d="M62.1367 126.12L64.288 126.125C67.3275 126.111 70.3627 124.944 72.6817 122.625L83.749 111.558C86.3055 109.001 87.4617 105.574 87.2175 102.23" stroke="white" stroke-opacity="0.61" stroke-width="3" stroke-miterlimit="10" stroke-linecap="round" stroke-linejoin="round"/>
<path d="M57.8241 103.676L55.7776 105.723C55.3278 106.172 54.9216 106.649 54.5586 107.147" stroke="white" stroke-opacity="0.61" stroke-width="3" stroke-miterlimit="10" stroke-linecap="round" stroke-linejoin="round"/>
<path d="M76.1716 91.1869C72.8279 90.9426 69.4011 92.0986 66.8444 94.6556L64.3379 97.1621" stroke="white" stroke-opacity="0.61" stroke-width="3" stroke-miterlimit="10" stroke-linecap="round" stroke-linejoin="round"/>
<path d="M45.868 118.658L56.1568 124.599C57.854 125.578 59.6988 126.071 61.5293 126.12H62.1358C65.9595 126.018 69.6418 123.99 71.6945 120.435C72.5063 119.029 72.0243 117.231 70.6183 116.419L42.4463 100.154C42.338 100.091 42.2715 99.9759 42.2715 99.8509V89.7316H27.957V99.7991C27.957 105.07 30.769 109.941 35.334 112.576L38.1083 114.178" stroke="white" stroke-opacity="0.61" stroke-width="3" stroke-miterlimit="10" stroke-linecap="round" stroke-linejoin="round"/>
<path d="M53.4881 60.1181V65.9919C53.4881 66.9709 52.6943 67.7644 51.7153 67.7644H45.4551L52.0028 74.5299C58.5648 81.3104 69.4376 81.3104 75.9998 74.5299L82.5476 67.7644H76.2871C75.3081 67.7644 74.5143 66.9709 74.5143 65.9919V60.1181" stroke="white" stroke-opacity="0.61" stroke-width="3" stroke-miterlimit="10" stroke-linecap="round" stroke-linejoin="round"/>
<path d="M90.803 88.469C92.3283 89.9945 92.3283 92.4675 90.803 93.993C89.2775 95.518 86.8045 95.518 85.2793 93.993" stroke="white" stroke-opacity="0.61" stroke-width="3" stroke-miterlimit="10" stroke-linecap="round" stroke-linejoin="round"/>
<path d="M42.2715 89.7313V80.8788" stroke="white" stroke-opacity="0.61" stroke-width="3" stroke-miterlimit="10" stroke-linecap="round" stroke-linejoin="round"/>
<path d="M65.8691 126.12C67.8954 126.174 69.9611 125.686 71.8451 124.599L92.6679 112.576C97.2326 109.941 100.045 105.07 100.045 99.7991V90.3213" stroke="white" stroke-opacity="0.61" stroke-width="3" stroke-miterlimit="10" stroke-linecap="round" stroke-linejoin="round"/>
<path d="M45.9402 46.9736C41.843 46.9736 38.5215 43.6521 38.5215 39.5549V38.9046C38.5215 36.8191 40.212 35.1286 42.2972 35.1286H43.5392" stroke="white" stroke-opacity="0.61" stroke-width="3" stroke-miterlimit="10" stroke-linecap="round" stroke-linejoin="round"/>
<path d="M82.0605 46.9736C86.1578 46.9736 89.479 43.6521 89.479 39.5549V38.9046C89.479 36.8191 87.7888 35.1286 85.7033 35.1286H82.8123" stroke="white" stroke-opacity="0.61" stroke-width="3" stroke-miterlimit="10" stroke-linecap="round" stroke-linejoin="round"/>
<path d="M71.5857 13.2733C72.0177 12.2788 72.2572 11.1815 72.2572 10.0285C72.2572 5.52553 68.6069 1.87528 64.1042 1.87528C59.6014 1.87528 55.9512 5.52553 55.9512 10.0285C55.9512 11.5558 56.3714 12.9853 57.1022 14.207" stroke="white" stroke-opacity="0.61" stroke-width="3" stroke-miterlimit="10" stroke-linecap="round" stroke-linejoin="round"/>
</g>
</svg>
