<svg width="79" height="79" viewBox="0 0 79 79" fill="none" xmlns="http://www.w3.org/2000/svg">
<path d="M74.3154 16.9097C71.7241 14.3184 68.1434 12.7008 64.2015 12.7008H60.0554C58.0609 9.13579 55.1869 6.13617 51.7161 4.00031C48.0883 1.77022 43.8323 0.482422 39.2621 0.482422C34.692 0.482422 30.436 1.77022 26.8082 4.00031C23.3374 6.13617 20.4634 9.13579 18.4689 12.7008H14.3228C10.3809 12.7008 6.8002 14.3184 4.2089 16.9097C1.6176 19.501 0 23.0817 0 27.0236V36.6664C0 37.5302 0.706719 38.2369 1.57049 38.2369C2.43425 38.2369 3.14097 37.5302 3.14097 36.6664V27.0236C3.14097 23.9612 4.39736 21.15 6.42329 19.1241C8.44921 17.0982 11.2447 15.8418 14.3228 15.8418H19.4112C20.0708 15.8418 20.6205 15.4492 20.856 14.8838C22.5836 11.5072 25.222 8.66465 28.4572 6.67014C31.5982 4.73843 35.3045 3.62339 39.2621 3.62339C43.2198 3.62339 46.9261 4.73843 50.0671 6.67014C53.3337 8.68036 55.9878 11.5543 57.7153 14.978C57.9823 15.5277 58.532 15.8418 59.1131 15.8418H64.2015C67.2796 15.8418 70.0751 17.0982 72.101 19.1241C74.1269 21.15 75.3833 23.9612 75.3833 27.0236V36.6664C75.3833 37.5302 76.09 38.2369 76.9538 38.2369C77.8176 38.2369 78.5243 37.5302 78.5243 36.6664V27.0236C78.5243 23.0817 76.9067 19.501 74.3154 16.9097Z" fill="white" fill-opacity="0.63"/>
<path d="M51.6376 30.5106C51.245 31.2801 51.5591 32.2224 52.3286 32.6151C53.0982 32.992 54.0405 32.6936 54.4331 31.9083C55.0299 30.7462 55.4853 29.5055 55.7994 28.202C56.0978 26.9456 56.2548 25.6264 56.2548 24.2758C56.2548 19.656 54.4023 15.4502 51.3939 12.397C51.3574 12.3504 51.3187 12.305 51.2764 12.2616C51.2296 12.2147 51.1798 12.1727 51.1287 12.1331C48.0633 9.14038 43.8837 7.29883 39.2622 7.29883C34.6406 7.29883 30.4611 9.14038 27.3956 12.1331C27.3446 12.1727 27.2948 12.2147 27.248 12.2616C27.2057 12.305 27.1669 12.3504 27.1305 12.397C24.122 15.4502 22.2695 19.656 22.2695 24.2758C22.2695 25.6264 22.4266 26.9456 22.725 28.202C23.0391 29.5055 23.4945 30.7462 24.0913 31.9083C24.4839 32.6936 25.4262 32.992 26.1957 32.6151C26.9653 32.2224 27.2794 31.2801 26.8868 30.5106C26.4156 29.5683 26.0387 28.5475 25.7874 27.4953C25.6642 26.9614 25.5676 26.41 25.5027 25.8463H27.6563C28.5201 25.8463 29.2268 25.1552 29.2268 24.2758C29.2268 23.412 28.5201 22.7053 27.6563 22.7053H25.5002C25.8001 20.064 26.8462 17.6426 28.424 15.6676L29.9492 17.1929C30.5617 17.8054 31.5511 17.8054 32.1636 17.1929C32.7761 16.5804 32.7761 15.5753 32.1636 14.9628L30.6508 13.4411C32.6263 11.8648 35.049 10.826 37.6917 10.5287V12.6699C37.6917 13.5494 38.3984 14.2561 39.2622 14.2561C40.126 14.2561 40.8327 13.5494 40.8327 12.6699V10.5287C43.4754 10.826 45.8981 11.8648 47.8736 13.4411L46.3608 14.9628C45.7483 15.5753 45.7483 16.5804 46.3608 17.1929C46.9733 17.8054 47.9627 17.8054 48.5752 17.1929L50.1004 15.6676C51.6782 17.6426 52.7243 20.064 53.0242 22.7053H50.8681C50.0043 22.7053 49.2976 23.412 49.2976 24.2758C49.2976 25.1552 50.0043 25.8463 50.8681 25.8463H53.0217C52.9567 26.41 52.8602 26.9614 52.737 27.4953C52.4857 28.5475 52.1088 29.5683 51.6376 30.5106Z" fill="white" fill-opacity="0.63"/>
<path d="M40.9904 38.0174C40.6763 38.0645 40.3936 38.0959 40.1266 38.1116C39.891 38.1273 39.5926 38.1273 39.2628 38.1273C38.933 38.1273 38.6346 38.1273 38.3991 38.1116C38.1321 38.0959 37.8494 38.0645 37.5353 38.0174C36.6715 37.9232 35.8863 38.5356 35.7921 39.3837C35.6821 40.2475 36.2946 41.0327 37.1584 41.1426C37.4725 41.1741 37.818 41.2055 38.2106 41.2369C38.5875 41.2526 38.9487 41.2683 39.2628 41.2683C39.5769 41.2683 39.9381 41.2526 40.3151 41.2369C40.7077 41.2055 41.0532 41.1741 41.3673 41.1426C42.2311 41.0327 42.8435 40.2475 42.7336 39.3837C42.6394 38.5356 41.8541 37.9232 40.9904 38.0174Z" fill="white" fill-opacity="0.63"/>
<path d="M39.2628 28.7199C40.3936 28.7199 41.54 28.2802 42.4038 27.4164C42.8598 26.9604 43.1964 26.4295 43.4138 25.8616H45.9374C46.8169 25.8616 47.5079 25.1549 47.5079 24.2755C47.5079 23.4117 46.8169 22.705 45.9374 22.705H43.4147C43.1974 22.1385 42.8605 21.6068 42.4038 21.1502C41.54 20.2707 40.3936 19.8467 39.2628 19.8467C38.1321 19.8467 36.9856 20.2707 36.1219 21.1502C35.2581 22.0139 34.8184 23.1447 34.8184 24.2755C34.8184 25.4219 35.2581 26.5527 36.1219 27.4164C36.9856 28.2802 38.1321 28.7199 39.2628 28.7199ZM38.352 23.3646C38.6032 23.1133 38.933 22.9877 39.2628 22.9877C39.5926 22.9877 39.9224 23.1133 40.1737 23.3646C40.4025 23.5799 40.5267 23.853 40.5578 24.1342C40.5536 24.1808 40.5506 24.2278 40.5506 24.2755C40.5506 24.3248 40.5536 24.3734 40.5579 24.4216C40.527 24.713 40.4027 24.9865 40.1737 25.202C39.9224 25.4533 39.5926 25.579 39.2628 25.579C38.933 25.579 38.6032 25.4533 38.352 25.202C38.085 24.9508 37.9593 24.621 37.9593 24.2755C37.9593 23.9457 38.085 23.6158 38.352 23.3646Z" fill="white" fill-opacity="0.63"/>
<path d="M31.9437 36.1481C30.8915 35.0959 29.4466 34.4363 27.8447 34.4363C26.2428 34.4363 24.798 35.0959 23.7457 36.1481H23.73C23.494 36.3877 23.279 36.6471 23.0855 36.9221C22.2106 36.2542 21.1181 35.8497 19.9295 35.8497C18.4846 35.8497 17.1654 36.4465 16.2231 37.3888V37.4045C15.988 37.6357 15.776 37.8899 15.5893 38.1626C14.7342 37.5665 13.6998 37.216 12.5796 37.216C11.1347 37.216 9.83124 37.7971 8.87325 38.7394L8.88895 38.7551C8.6093 39.0302 8.36154 39.3381 8.14932 39.6708C7.32048 39.1097 6.32234 38.7865 5.24543 38.7865C3.80058 38.7865 2.48137 39.3676 1.53907 40.3256C0.596783 41.2836 0 42.5871 0 44.0319V54.4286C0 54.5375 0.0113588 54.6438 0.0327248 54.7466L2.44995 77.6089C2.54419 78.457 3.31372 79.0852 4.17749 78.991C5.04126 78.9124 5.66945 78.1272 5.57522 77.2791L3.14097 54.4034V44.0319C3.14097 43.4509 3.37654 42.9169 3.75346 42.54C4.14609 42.1631 4.66434 41.9275 5.24543 41.9275C5.8108 41.9275 6.34477 42.1631 6.72168 42.54C7.0986 42.9326 7.33417 43.4509 7.33417 44.0319V47.6598C7.33417 48.5392 8.04089 49.2303 8.90466 49.2303C9.78412 49.2303 10.4751 48.5392 10.4751 47.6598V44.0319V42.4458C10.4751 41.8647 10.7107 41.3464 11.0876 40.9695H11.1033C11.4802 40.5926 11.9985 40.357 12.5796 40.357C13.1607 40.357 13.6789 40.5926 14.0715 40.9695C14.4485 41.3464 14.684 41.8804 14.684 42.4458V47.6598C14.684 48.5392 15.3908 49.2303 16.2545 49.2303C17.1183 49.2303 17.825 48.5392 17.825 47.6598V42.4458V41.0951C17.825 40.5141 18.0606 39.9958 18.4375 39.6189C18.8301 39.2263 19.3484 38.9907 19.9295 38.9907C20.4948 38.9907 21.0288 39.2263 21.4057 39.6189L21.4685 39.666C21.8141 40.0429 22.0182 40.5455 22.0182 41.0951V47.6598C22.0182 48.5392 22.7249 49.2303 23.5887 49.2303C24.4682 49.2303 25.1592 48.5392 25.1592 47.6598V41.0951V40.2628C25.1592 39.5246 25.4576 38.8493 25.9444 38.3625C26.4313 37.8756 27.1066 37.5773 27.8447 37.5773C28.5828 37.5773 29.2581 37.8756 29.745 38.3625C30.2162 38.8493 30.5302 39.5246 30.5302 40.2628V54.2558L28.096 77.2791C28.0018 78.1272 28.63 78.9124 29.478 78.991C30.3418 79.0852 31.1113 78.457 31.2056 77.6089L33.6383 54.7474C33.6598 54.6444 33.6712 54.5377 33.6712 54.4286V40.2628C33.6712 38.6609 33.0116 37.216 31.9594 36.1481H31.9437Z" fill="white" fill-opacity="0.63"/>
<path d="M73.2793 38.7868C72.2024 38.7868 71.2043 39.1099 70.3754 39.671C70.1632 39.3384 69.9154 39.0304 69.6358 38.7554L69.6515 38.7396C68.6935 37.7974 67.39 37.2163 65.9451 37.2163C64.8249 37.2163 63.7906 37.5667 62.9354 38.1628C62.7488 37.8902 62.5367 37.636 62.3016 37.4047V37.389C61.3593 36.4467 60.0401 35.85 58.5953 35.85C57.4066 35.85 56.3142 36.2545 55.4392 36.9224C55.2457 36.6474 55.0307 36.3879 54.7947 36.1483H54.779C53.7268 35.0961 52.2819 34.4365 50.68 34.4365C49.0781 34.4365 47.6333 35.0961 46.5811 36.1483H46.5653C45.5131 37.2163 44.8535 38.6611 44.8535 40.263V54.4288C44.8535 54.538 44.865 54.6446 44.8864 54.7477L47.3192 77.6092C47.4134 78.4572 48.1829 79.0854 49.0467 78.9912C49.8948 78.9127 50.523 78.1274 50.4287 77.2794L47.9945 54.2561V40.263C47.9945 39.5249 48.3086 38.8496 48.7797 38.3627C49.2666 37.8759 49.9419 37.5775 50.68 37.5775C51.4182 37.5775 52.0935 37.8759 52.5803 38.3627C53.0672 38.8496 53.3656 39.5249 53.3656 40.263V41.0954V47.66C53.3656 48.5395 54.0566 49.2305 54.936 49.2305C55.7998 49.2305 56.5065 48.5395 56.5065 47.66V41.0954C56.5065 40.5457 56.7107 40.0432 57.0562 39.6662L57.119 39.6191C57.4959 39.2265 58.0299 38.9909 58.5953 38.9909C59.1763 38.9909 59.6946 39.2265 60.0872 39.6191C60.4641 39.996 60.6997 40.5143 60.6997 41.0954V42.446V47.66C60.6997 48.5395 61.4064 49.2305 62.2702 49.2305C63.134 49.2305 63.8407 48.5395 63.8407 47.66V42.446C63.8407 41.8806 64.0763 41.3467 64.4532 40.9697C64.8458 40.5928 65.3641 40.3573 65.9451 40.3573C66.5262 40.3573 67.0445 40.5928 67.4214 40.9697H67.4371C67.814 41.3467 68.0496 41.8649 68.0496 42.446V44.0322V47.66C68.0496 48.5395 68.7406 49.2305 69.6201 49.2305C70.4838 49.2305 71.1906 48.5395 71.1906 47.66V44.0322C71.1906 43.4511 71.4261 42.9328 71.8031 42.5402C72.18 42.1633 72.7139 41.9277 73.2793 41.9277C73.8604 41.9277 74.3787 42.1633 74.7713 42.5402C75.1482 42.9171 75.3838 43.4511 75.3838 44.0322V54.4037L72.9495 77.2794C72.8553 78.1274 73.4835 78.9127 74.3472 78.9912C75.211 79.0854 75.9805 78.4572 76.0748 77.6092L78.492 54.7469C78.5134 54.6441 78.5247 54.5377 78.5247 54.4288V44.0322C78.5247 42.5873 77.928 41.2838 76.9857 40.3258C76.0434 39.3678 74.7242 38.7868 73.2793 38.7868Z" fill="white" fill-opacity="0.63"/>
</svg>
